<svg width="1024" height="1024" viewBox="0 0 1024 1024" xmlns="http://www.w3.org/2000/svg">
  <path d="M139 70c-19-19-49-19-68 0s-19 49 0 68l124 124C125 320 71 390 35 484c-7 18-5 38 5 54 84 132 246 294 472 294 85 0 161-23 228-59l146 146c19 19 49 19 68 0s19-49 0-68L139 70zm373 666c-165 0-294-103-374-224 31-47 72-94 123-132l92 92c-1 13-1 26 1 39 10 76 70 136 146 146 13 2 26 2 39 1l88 88c-36 13-75 20-115 20zm-64-224c0-4 0-8 1-12l75 75c-4 1-8 1-12 1-35 0-64-29-64-64zm64-320c226 0 388 162 472 294 10 16 12 36 5 54-30 78-74 138-128 188l-68-68c37-39 68-82 93-126-80-121-209-224-374-224-42 0-82 7-119 20l-76-76c59-40 124-62 195-62zm-19 160c6-1 13-1 19-1 88 0 160 72 160 160 0 6 0 13-1 19L493 352z"/>
</svg>
